<svg width="53" height="39" viewBox="0 0 53 39" fill="none" xmlns="http://www.w3.org/2000/svg">
<path d="M15.7615 38.6878C12.5892 38.6878 9.85482 37.9362 7.55841 36.4329C5.26201 34.9177 3.49236 32.7456 2.24947 29.9165C1.00657 27.0756 0.391037 23.6606 0.402874 19.6715C0.414711 15.6824 1.03616 12.297 2.26722 9.51525C3.51012 6.72169 5.27385 4.59692 7.55841 3.14096C9.85482 1.67315 12.5892 0.939252 15.7615 0.939252C18.9339 0.939252 21.6683 1.67315 23.9647 3.14096C26.2729 4.59692 28.0485 6.72169 29.2914 9.51525C30.5343 12.3088 31.1498 15.6942 31.138 19.6715C31.138 23.6724 30.5165 27.0934 29.2736 29.9343C28.0307 32.7752 26.2611 34.9473 23.9647 36.4506C21.6801 37.9421 18.9457 38.6878 15.7615 38.6878ZM15.7615 31.4968C17.6555 31.4968 19.1884 30.5321 20.3603 28.6026C21.5321 26.6613 22.1122 23.6843 22.1003 19.6715C22.1003 17.0437 21.834 14.8775 21.3013 13.1729C20.7686 11.4565 20.0288 10.1781 19.0819 9.33769C18.1349 8.49725 17.0281 8.07704 15.7615 8.07704C13.8794 8.07704 12.3584 9.02992 11.1983 10.9357C10.0383 12.8296 9.45235 15.7416 9.44052 19.6715C9.42868 22.3348 9.68318 24.5425 10.204 26.2944C10.7367 28.0463 11.4824 29.3543 12.4412 30.2184C13.4 31.0706 14.5068 31.4968 15.7615 31.4968ZM52.9863 1.43641V37.8H44.215V9.63954H44.0019L35.8698 14.6111V7.0117L44.8365 1.43641H52.9863Z" fill="url(#paint0_linear_1_30)"/>
<defs>
<linearGradient id="paint0_linear_1_30" x1="28.1927" y1="-20.2" x2="28.1927" y2="59.8" gradientUnits="userSpaceOnUse">
<stop stop-color="#00AFF0"/>
<stop offset="1" stop-color="#EEF5FA"/>
</linearGradient>
</defs>
</svg>
