<svg width="64" height="39" viewBox="0 0 64 39" fill="none" xmlns="http://www.w3.org/2000/svg">
<path d="M16.205 38.6878C13.0327 38.6878 10.2983 37.9362 8.00191 36.4329C5.70551 34.9177 3.93586 32.7456 2.69296 29.9165C1.45007 27.0756 0.834536 23.6606 0.846373 19.6715C0.85821 15.6824 1.47966 12.297 2.71072 9.51525C3.95362 6.72169 5.71735 4.59692 8.00191 3.14096C10.2983 1.67315 13.0327 0.939252 16.205 0.939252C19.3774 0.939252 22.1118 1.67315 24.4082 3.14096C26.7164 4.59692 28.492 6.72169 29.7349 9.51525C30.9778 12.3088 31.5933 15.6942 31.5815 19.6715C31.5815 23.6724 30.96 27.0934 29.7171 29.9343C28.4742 32.7752 26.7046 34.9473 24.4082 36.4506C22.1236 37.9421 19.3892 38.6878 16.205 38.6878ZM16.205 31.4968C18.099 31.4968 19.6319 30.5321 20.8038 28.6026C21.9756 26.6613 22.5557 23.6843 22.5438 19.6715C22.5438 17.0437 22.2775 14.8775 21.7448 13.1729C21.2121 11.4565 20.4723 10.1781 19.5254 9.33769C18.5784 8.49725 17.4716 8.07704 16.205 8.07704C14.3229 8.07704 12.8019 9.02992 11.6418 10.9357C10.4818 12.8296 9.89585 15.7416 9.88402 19.6715C9.87218 22.3348 10.1267 24.5425 10.6475 26.2944C11.1802 28.0463 11.9259 29.3543 12.8847 30.2184C13.8435 31.0706 14.9503 31.4968 16.205 31.4968ZM36.6152 37.8V31.479L49.8787 19.8668C50.873 18.9672 51.7194 18.1445 52.4178 17.3988C53.1161 16.6412 53.6488 15.8836 54.0158 15.126C54.3827 14.3566 54.5662 13.5221 54.5662 12.6225C54.5662 11.6163 54.3472 10.7581 53.9092 10.0479C53.4713 9.32585 52.8676 8.76951 52.0981 8.37888C51.3287 7.98826 50.4469 7.79295 49.4526 7.79295C48.4464 7.79295 47.5645 8.0001 46.807 8.4144C46.0494 8.81686 45.4575 9.40279 45.0314 10.1722C44.6171 10.9416 44.4099 11.8768 44.4099 12.9776H36.0825C36.0825 10.5036 36.6389 8.36705 37.7516 6.56781C38.8642 4.76856 40.4267 3.38362 42.4391 2.41297C44.4632 1.43049 46.8129 0.939252 49.4881 0.939252C52.2461 0.939252 54.6431 1.4009 56.6791 2.3242C58.7151 3.24749 60.2894 4.53774 61.4021 6.19493C62.5267 7.84029 63.0889 9.75199 63.0889 11.93C63.0889 13.315 62.8107 14.6881 62.2544 16.0493C61.6981 17.4106 60.6978 18.9139 59.2537 20.5593C57.8214 22.2046 55.7854 24.1755 53.1457 26.4719L48.7956 30.4847V30.7155H63.5328V37.8H36.6152Z" fill="url(#paint0_linear_1_41)"/>
<defs>
<linearGradient id="paint0_linear_1_41" x1="32.1519" y1="-20.2" x2="32.1519" y2="59.8" gradientUnits="userSpaceOnUse">
<stop stop-color="#00AFF0"/>
<stop offset="1" stop-color="#EEF5FA"/>
</linearGradient>
</defs>
</svg>
