<svg width="65" height="39" viewBox="0 0 65 39" fill="none" xmlns="http://www.w3.org/2000/svg">
<path d="M15.4687 38.6878C12.2964 38.6878 9.56201 37.9362 7.2656 36.4329C4.9692 34.9177 3.19955 32.7456 1.95665 29.9165C0.713757 27.0756 0.0982266 23.6606 0.110064 19.6715C0.121901 15.6824 0.74335 12.297 1.97441 9.51525C3.21731 6.72169 4.98104 4.59692 7.2656 3.14096C9.56201 1.67315 12.2964 0.939252 15.4687 0.939252C18.6411 0.939252 21.3755 1.67315 23.6719 3.14096C25.9801 4.59692 27.7557 6.72169 28.9986 9.51525C30.2415 12.3088 30.857 15.6942 30.8451 19.6715C30.8451 23.6724 30.2237 27.0934 28.9808 29.9343C27.7379 32.7752 25.9683 34.9473 23.6719 36.4506C21.3873 37.9421 18.6529 38.6878 15.4687 38.6878ZM15.4687 31.4968C17.3627 31.4968 18.8956 30.5321 20.0675 28.6026C21.2393 26.6613 21.8193 23.6843 21.8075 19.6715C21.8075 17.0437 21.5412 14.8775 21.0085 13.1729C20.4758 11.4565 19.736 10.1781 18.789 9.33769C17.8421 8.49725 16.7353 8.07704 15.4687 8.07704C13.5866 8.07704 12.0656 9.02992 10.9055 10.9357C9.74548 12.8296 9.15954 15.7416 9.14771 19.6715C9.13587 22.3348 9.39037 24.5425 9.9112 26.2944C10.4439 28.0463 11.1896 29.3543 12.1484 30.2184C13.1072 31.0706 14.214 31.4968 15.4687 31.4968ZM49.7106 38.2972C46.9407 38.2972 44.4845 37.8237 42.342 36.8768C40.2113 35.9179 38.5304 34.5981 37.2993 32.9172C36.0683 31.2364 35.4409 29.301 35.4172 27.1111H44.2596C44.2951 27.9042 44.5496 28.6085 45.0231 29.2241C45.4965 29.8277 46.1417 30.3012 46.9584 30.6445C47.7752 30.9878 48.7044 31.1594 49.7461 31.1594C50.7877 31.1594 51.7051 30.9759 52.4982 30.609C53.3031 30.2302 53.9305 29.7153 54.3803 29.0643C54.8301 28.4014 55.0491 27.6438 55.0373 26.7915C55.0491 25.9393 54.8064 25.1817 54.3093 24.5188C53.8121 23.8559 53.1078 23.341 52.1964 22.9741C51.2967 22.6071 50.2314 22.4236 49.0003 22.4236H45.467V16.1736H49.0003C50.0775 16.1736 51.0245 15.9961 51.8412 15.641C52.6698 15.2858 53.315 14.7887 53.7766 14.1495C54.2383 13.4984 54.4632 12.7527 54.4513 11.9123C54.4632 11.0955 54.2679 10.3794 53.8654 9.76383C53.4748 9.13646 52.9243 8.65114 52.2141 8.30786C51.5157 7.96458 50.7049 7.79295 49.7816 7.79295C48.8109 7.79295 47.9291 7.96458 47.136 8.30786C46.3547 8.65114 45.7333 9.13646 45.2716 9.76383C44.81 10.3912 44.5673 11.1192 44.5437 11.9478H36.1452C36.1689 9.78158 36.7726 7.87581 37.9563 6.23045C39.14 4.57325 40.7499 3.27708 42.7858 2.34195C44.8337 1.40682 47.1656 0.939252 49.7816 0.939252C52.3858 0.939252 54.6762 1.39498 56.653 2.30644C58.6298 3.2179 60.1687 4.4608 61.2695 6.03513C62.3704 7.59763 62.9208 9.36728 62.9208 11.3441C62.9326 13.3919 62.2638 15.0787 60.9144 16.4045C59.5768 17.7302 57.8545 18.547 55.7475 18.8547V19.1388C58.5647 19.4703 60.6895 20.3817 62.1218 21.8732C63.5659 23.3647 64.2821 25.229 64.2702 27.4662C64.2702 29.5732 63.6488 31.4435 62.4059 33.077C61.1748 34.6987 59.4584 35.9771 57.2567 36.9123C55.0669 37.8356 52.5515 38.2972 49.7106 38.2972Z" fill="url(#paint0_linear_1_53)"/>
<defs>
<linearGradient id="paint0_linear_1_53" x1="32.148" y1="-20.2" x2="32.148" y2="59.8" gradientUnits="userSpaceOnUse">
<stop stop-color="#00AFF0"/>
<stop offset="1" stop-color="#EEF5FA"/>
</linearGradient>
</defs>
</svg>
