<svg width="67" height="38" viewBox="0 0 67 38" fill="none" xmlns="http://www.w3.org/2000/svg">
<path d="M15.9081 37.9979C12.7358 37.9979 10.0014 37.2462 7.705 35.7429C5.40859 34.2278 3.63894 32.0557 2.39605 29.2266C1.15315 26.3857 0.537619 22.9707 0.549456 18.9816C0.561293 14.9924 1.18274 11.607 2.4138 8.8253C3.6567 6.03174 5.42043 3.90698 7.705 2.45102C10.0014 0.983213 12.7358 0.249311 15.9081 0.249311C19.0805 0.249311 21.8148 0.983213 24.1112 2.45102C26.4195 3.90698 28.1951 6.03174 29.438 8.8253C30.6808 11.6189 31.2964 15.0043 31.2845 18.9816C31.2845 22.9825 30.6631 26.4034 29.4202 29.2443C28.1773 32.0852 26.4076 34.2574 24.1112 35.7607C21.8267 37.2522 19.0923 37.9979 15.9081 37.9979ZM15.9081 30.8068C17.8021 30.8068 19.335 29.8421 20.5068 27.9127C21.6787 25.9714 22.2587 22.9943 22.2469 18.9816C22.2469 16.3537 21.9806 14.1875 21.4479 12.483C20.9152 10.7666 20.1754 9.48818 19.2284 8.64775C18.2815 7.80731 17.1747 7.38709 15.9081 7.38709C14.026 7.38709 12.5049 8.33998 11.3449 10.2458C10.1849 12.1397 9.59894 15.0516 9.5871 18.9816C9.57526 21.6449 9.82976 23.8525 10.3506 25.6044C10.8833 27.3563 11.629 28.6643 12.5878 29.5284C13.5466 30.3807 14.6534 30.8068 15.9081 30.8068ZM35.8744 31.0732V24.2195L50.7714 0.74647H56.8616V10.0504H53.3282L44.6102 23.8644V24.1485H66.1833V31.0732H35.8744ZM53.4348 37.1101V28.978L53.6123 25.9773V0.74647H61.8332V37.1101H53.4348Z" fill="url(#paint0_linear_1_65)"/>
<defs>
<linearGradient id="paint0_linear_1_65" x1="33.1489" y1="-20.8899" x2="33.1489" y2="59.1101" gradientUnits="userSpaceOnUse">
<stop stop-color="#00AFF0"/>
<stop offset="1" stop-color="#EEF5FA"/>
</linearGradient>
</defs>
</svg>
