<svg width="65" height="38" viewBox="0 0 65 38" fill="none" xmlns="http://www.w3.org/2000/svg">
<path d="M15.7125 37.9979C12.5401 37.9979 9.80576 37.2462 7.50936 35.7429C5.21295 34.2278 3.4433 32.0557 2.20041 29.2266C0.957509 26.3857 0.341978 22.9707 0.353815 18.9816C0.365652 14.9924 0.987101 11.607 2.21816 8.8253C3.46106 6.03174 5.22479 3.90698 7.50936 2.45102C9.80576 0.983213 12.5401 0.249311 15.7125 0.249311C18.8848 0.249311 21.6192 0.983213 23.9156 2.45102C26.2238 3.90698 27.9994 6.03174 29.2423 8.8253C30.4852 11.6189 31.1007 15.0043 31.0889 18.9816C31.0889 22.9825 30.4675 26.4034 29.2246 29.2443C27.9817 32.0852 26.212 34.2574 23.9156 35.7607C21.631 37.2522 18.8967 37.9979 15.7125 37.9979ZM15.7125 30.8068C17.6064 30.8068 19.1393 29.8421 20.3112 27.9127C21.4831 25.9714 22.0631 22.9943 22.0513 18.9816C22.0513 16.3537 21.7849 14.1875 21.2523 12.483C20.7196 10.7666 19.9798 9.48818 19.0328 8.64775C18.0858 7.80731 16.9791 7.38709 15.7125 7.38709C13.8304 7.38709 12.3093 8.33998 11.1493 10.2458C9.98923 12.1397 9.40329 15.0516 9.39146 18.9816C9.37962 21.6449 9.63412 23.8525 10.155 25.6044C10.6876 27.3563 11.4334 28.6643 12.3922 29.5284C13.351 30.3807 14.4577 30.8068 15.7125 30.8068ZM50.0431 37.6073C47.3916 37.6073 45.036 37.1279 42.9763 36.1691C40.9167 35.2102 39.2891 33.8904 38.0935 32.2095C36.9098 30.5287 36.2943 28.5992 36.2469 26.4212H44.7697C44.8407 27.7588 45.3852 28.836 46.4032 29.6527C47.4212 30.4576 48.6345 30.8601 50.0431 30.8601C51.1439 30.8601 52.1205 30.6174 52.9728 30.1321C53.8251 29.6468 54.4938 28.9662 54.9792 28.0902C55.4645 27.2024 55.7012 26.1844 55.6894 25.0362C55.7012 23.8644 55.4586 22.8405 54.9614 21.9645C54.4761 21.0886 53.8014 20.4079 52.9373 19.9226C52.085 19.4254 51.1025 19.1769 49.9898 19.1769C48.9363 19.165 47.9361 19.3959 46.9891 19.8693C46.054 20.3428 45.3438 20.9879 44.8584 21.8047L37.0992 20.3487L38.6795 0.74647H62.0104V7.83099H45.906L45.0715 16.407H45.2846C45.8883 15.4008 46.8589 14.5722 48.1965 13.9212C49.5459 13.2583 51.0788 12.9269 52.7952 12.9269C54.9733 12.9269 56.9145 13.4359 58.6191 14.4539C60.3355 15.46 61.6849 16.8568 62.6674 18.6442C63.6617 20.4316 64.1589 22.4794 64.1589 24.7877C64.1589 27.2853 63.567 29.4988 62.3833 31.4283C61.2114 33.3577 59.5661 34.8729 57.4472 35.9737C55.3402 37.0628 52.8722 37.6073 50.0431 37.6073Z" fill="url(#paint0_linear_1_77)"/>
<defs>
<linearGradient id="paint0_linear_1_77" x1="32.1476" y1="-20.8899" x2="32.1476" y2="59.1101" gradientUnits="userSpaceOnUse">
<stop stop-color="#00AFF0"/>
<stop offset="1" stop-color="#EEF5FA"/>
</linearGradient>
</defs>
</svg>
