<svg width="66" height="38" viewBox="0 0 66 38" fill="none" xmlns="http://www.w3.org/2000/svg">
<path d="M16.3225 37.9979C13.1501 37.9979 10.4158 37.2462 8.11936 35.7429C5.82295 34.2278 4.0533 32.0557 2.81041 29.2266C1.56751 26.3857 0.951979 22.9707 0.963816 18.9816C0.975653 14.9924 1.5971 11.607 2.82816 8.8253C4.07106 6.03174 5.83479 3.90698 8.11936 2.45102C10.4158 0.983213 13.1501 0.249311 16.3225 0.249311C19.4948 0.249311 22.2292 0.983213 24.5256 2.45102C26.8338 3.90698 28.6094 6.03174 29.8523 8.8253C31.0952 11.6189 31.7107 15.0043 31.6989 18.9816C31.6989 22.9825 31.0775 26.4034 29.8346 29.2443C28.5917 32.0852 26.822 34.2574 24.5256 35.7607C22.241 37.2522 19.5067 37.9979 16.3225 37.9979ZM16.3225 30.8068C18.2164 30.8068 19.7493 29.8421 20.9212 27.9127C22.0931 25.9714 22.6731 22.9943 22.6613 18.9816C22.6613 16.3537 22.3949 14.1875 21.8623 12.483C21.3296 10.7666 20.5898 9.48818 19.6428 8.64775C18.6958 7.80731 17.5891 7.38709 16.3225 7.38709C14.4404 7.38709 12.9193 8.33998 11.7593 10.2458C10.5992 12.1397 10.0133 15.0516 10.0015 18.9816C9.98962 21.6449 10.2441 23.8525 10.765 25.6044C11.2976 27.3563 12.0434 28.6643 13.0022 29.5284C13.961 30.3807 15.0677 30.8068 16.3225 30.8068ZM51.3101 37.6073C49.3214 37.6073 47.4156 37.2877 45.5927 36.6485C43.7698 35.9974 42.1481 34.9676 40.7277 33.559C39.3072 32.1385 38.1886 30.2801 37.3718 27.9837C36.5551 25.6754 36.1526 22.8641 36.1645 19.5497C36.1763 16.5549 36.5432 13.8679 37.2653 11.4887C37.9874 9.09756 39.0172 7.06749 40.3548 5.39846C41.7042 3.72942 43.3141 2.45693 45.1843 1.58099C47.0664 0.693202 49.1675 0.249311 51.4876 0.249311C54.0326 0.249311 56.2757 0.74647 58.217 1.74079C60.1701 2.72327 61.7326 4.04903 62.9045 5.71806C64.0764 7.37526 64.7689 9.22185 64.9819 11.2578H56.3349C56.0745 10.1096 55.5004 9.2396 54.6126 8.64775C53.7367 8.04405 52.695 7.74221 51.4876 7.74221C49.2622 7.74221 47.5991 8.70693 46.4983 10.6364C45.4092 12.5658 44.8529 15.1463 44.8292 18.3779H45.0601C45.5572 17.2888 46.2734 16.3537 47.2085 15.5725C48.1436 14.7912 49.2149 14.1934 50.4223 13.7791C51.6415 13.353 52.9317 13.1399 54.293 13.1399C56.471 13.1399 58.3946 13.643 60.0636 14.6492C61.7326 15.6553 63.0406 17.0343 63.9876 18.7862C64.9346 20.5263 65.4021 22.5209 65.3903 24.7699C65.4021 27.3031 64.8103 29.5403 63.6147 31.4816C62.4192 33.411 60.762 34.9143 58.6431 35.9915C56.5361 37.0687 54.0918 37.6073 51.3101 37.6073ZM51.2568 30.8601C52.334 30.8601 53.2987 30.6056 54.151 30.0966C55.0032 29.5876 55.672 28.8951 56.1574 28.0192C56.6427 27.1433 56.8794 26.1549 56.8676 25.054C56.8794 23.9413 56.6427 22.9529 56.1574 22.0888C55.6839 21.2247 55.021 20.5381 54.1687 20.0291C53.3283 19.5201 52.3636 19.2656 51.2745 19.2656C50.4815 19.2656 49.7416 19.4136 49.0551 19.7095C48.3685 20.0055 47.7708 20.4198 47.2618 20.9524C46.7646 21.4733 46.374 22.0888 46.0899 22.799C45.8058 23.4974 45.6578 24.255 45.646 25.0718C45.6578 26.1489 45.9064 27.1255 46.3917 28.0014C46.8771 28.8774 47.5399 29.5758 48.3804 30.0966C49.2208 30.6056 50.1796 30.8601 51.2568 30.8601Z" fill="url(#paint0_linear_1_89)"/>
<defs>
<linearGradient id="paint0_linear_1_89" x1="33.1482" y1="-20.8899" x2="33.1482" y2="59.1101" gradientUnits="userSpaceOnUse">
<stop stop-color="#00AFF0"/>
<stop offset="1" stop-color="#EEF5FA"/>
</linearGradient>
</defs>
</svg>
